<svg xmlns="http://www.w3.org/2000/svg" xmlns:xlink="http://www.w3.org/1999/xlink" width="500" zoomAndPan="magnify" viewBox="0 0 375 374.999991" height="500" preserveAspectRatio="xMidYMid meet" version="1.0"><defs><g/><clipPath id="1708457e65"><path d="M 55 148.070312 L 118 148.070312 L 118 199.070312 L 55 199.070312 Z M 55 148.070312 " clip-rule="nonzero"/></clipPath><clipPath id="673fcd80e8"><path d="M 84.253906 149.777344 L 55.539062 194.484375 C 54.289062 196.429688 55.597656 199.070312 57.808594 199.070312 L 115.238281 199.070312 C 117.453125 199.070312 118.761719 196.429688 117.507812 194.484375 L 88.796875 149.777344 C 87.703125 148.078125 85.347656 148.078125 84.253906 149.777344 Z M 84.253906 149.777344 " clip-rule="nonzero"/></clipPath><linearGradient x1="-5.670016" gradientTransform="matrix(0.134653, 0, 0, 0.134317, 55.053039, 148.502076)" y1="188.246" x2="473.119953" gradientUnits="userSpaceOnUse" y2="188.246" id="b772ba14cc"><stop stop-opacity="1" stop-color="rgb(0%, 65.098572%, 31.759644%)" offset="0"/><stop stop-opacity="1" stop-color="rgb(0.106812%, 65.122986%, 31.745911%)" offset="0.015625"/><stop stop-opacity="1" stop-color="rgb(0.434875%, 65.197754%, 31.703186%)" offset="0.0195312"/><stop stop-opacity="1" stop-color="rgb(0.656128%, 65.248108%, 31.67572%)" offset="0.0234375"/><stop stop-opacity="1" stop-color="rgb(0.87738%, 65.298462%, 31.646729%)" offset="0.0273437"/><stop stop-opacity="1" stop-color="rgb(1.098633%, 65.348816%, 31.619263%)" offset="0.03125"/><stop stop-opacity="1" stop-color="rgb(1.319885%, 65.39917%, 31.590271%)" offset="0.0351562"/><stop stop-opacity="1" stop-color="rgb(1.541138%, 65.449524%, 31.562805%)" offset="0.0390625"/><stop stop-opacity="1" stop-color="rgb(1.76239%, 65.499878%, 31.533813%)" offset="0.0429687"/><stop stop-opacity="1" stop-color="rgb(1.983643%, 65.550232%, 31.506348%)" offset="0.046875"/><stop stop-opacity="1" stop-color="rgb(2.204895%, 65.59906%, 31.477356%)" offset="0.0507812"/><stop stop-opacity="1" stop-color="rgb(2.426147%, 65.649414%, 31.44989%)" offset="0.0546875"/><stop stop-opacity="1" stop-color="rgb(2.6474%, 65.699768%, 31.420898%)" offset="0.0585938"/><stop stop-opacity="1" stop-color="rgb(2.868652%, 65.750122%, 31.393433%)" offset="0.0625"/><stop stop-opacity="1" stop-color="rgb(3.089905%, 65.800476%, 31.364441%)" offset="0.0664062"/><stop stop-opacity="1" stop-color="rgb(3.311157%, 65.85083%, 31.336975%)" offset="0.0703125"/><stop stop-opacity="1" stop-color="rgb(3.530884%, 65.901184%, 31.307983%)" offset="0.0742188"/><stop stop-opacity="1" stop-color="rgb(3.752136%, 65.951538%, 31.280518%)" offset="0.078125"/><stop stop-opacity="1" stop-color="rgb(3.973389%, 66.001892%, 31.251526%)" offset="0.0820312"/><stop stop-opacity="1" stop-color="rgb(4.194641%, 66.052246%, 31.22406%)" offset="0.0859375"/><stop stop-opacity="1" stop-color="rgb(4.415894%, 66.101074%, 31.195068%)" offset="0.0898437"/><stop stop-opacity="1" stop-color="rgb(4.637146%, 66.151428%, 31.167603%)" offset="0.09375"/><stop stop-opacity="1" stop-color="rgb(4.858398%, 66.201782%, 31.138611%)" offset="0.0976562"/><stop stop-opacity="1" stop-color="rgb(5.079651%, 66.252136%, 31.111145%)" offset="0.101562"/><stop stop-opacity="1" stop-color="rgb(5.300903%, 66.30249%, 31.082153%)" offset="0.105469"/><stop stop-opacity="1" stop-color="rgb(5.522156%, 66.352844%, 31.054688%)" offset="0.109375"/><stop stop-opacity="1" stop-color="rgb(5.743408%, 66.403198%, 31.025696%)" offset="0.113281"/><stop stop-opacity="1" stop-color="rgb(5.964661%, 66.453552%, 30.99823%)" offset="0.117187"/><stop stop-opacity="1" stop-color="rgb(6.185913%, 66.503906%, 30.969238%)" offset="0.121094"/><stop stop-opacity="1" stop-color="rgb(6.407166%, 66.55426%, 30.941772%)" offset="0.125"/><stop stop-opacity="1" stop-color="rgb(6.628418%, 66.604614%, 30.912781%)" offset="0.128906"/><stop stop-opacity="1" stop-color="rgb(6.84967%, 66.654968%, 30.885315%)" offset="0.132812"/><stop stop-opacity="1" stop-color="rgb(7.070923%, 66.703796%, 30.856323%)" offset="0.136719"/><stop stop-opacity="1" stop-color="rgb(7.292175%, 66.75415%, 30.828857%)" offset="0.140625"/><stop stop-opacity="1" stop-color="rgb(7.513428%, 66.804504%, 30.799866%)" offset="0.144531"/><stop stop-opacity="1" stop-color="rgb(7.73468%, 66.854858%, 30.7724%)" offset="0.148438"/><stop stop-opacity="1" stop-color="rgb(7.955933%, 66.905212%, 30.743408%)" offset="0.152344"/><stop stop-opacity="1" stop-color="rgb(8.177185%, 66.955566%, 30.715942%)" offset="0.15625"/><stop stop-opacity="1" stop-color="rgb(8.398438%, 67.00592%, 30.686951%)" offset="0.160156"/><stop stop-opacity="1" stop-color="rgb(8.61969%, 67.056274%, 30.659485%)" offset="0.164062"/><stop stop-opacity="1" stop-color="rgb(8.840942%, 67.106628%, 30.630493%)" offset="0.167969"/><stop stop-opacity="1" stop-color="rgb(9.062195%, 67.156982%, 30.603027%)" offset="0.171875"/><stop stop-opacity="1" stop-color="rgb(9.283447%, 67.205811%, 30.574036%)" offset="0.175781"/><stop stop-opacity="1" stop-color="rgb(9.5047%, 67.256165%, 30.54657%)" offset="0.179687"/><stop stop-opacity="1" stop-color="rgb(9.725952%, 67.306519%, 30.517578%)" offset="0.183594"/><stop stop-opacity="1" stop-color="rgb(9.947205%, 67.356873%, 30.490112%)" offset="0.1875"/><stop stop-opacity="1" stop-color="rgb(10.168457%, 67.407227%, 30.461121%)" offset="0.191406"/><stop stop-opacity="1" stop-color="rgb(10.389709%, 67.457581%, 30.433655%)" offset="0.195312"/><stop stop-opacity="1" stop-color="rgb(10.610962%, 67.507935%, 30.406189%)" offset="0.199219"/><stop stop-opacity="1" stop-color="rgb(10.832214%, 67.558289%, 30.378723%)" offset="0.203125"/><stop stop-opacity="1" stop-color="rgb(11.053467%, 67.608643%, 30.349731%)" offset="0.207031"/><stop stop-opacity="1" stop-color="rgb(11.274719%, 67.658997%, 30.322266%)" offset="0.210938"/><stop stop-opacity="1" stop-color="rgb(11.495972%, 67.707825%, 30.293274%)" offset="0.214844"/><stop stop-opacity="1" stop-color="rgb(11.717224%, 67.758179%, 30.265808%)" offset="0.21875"/><stop stop-opacity="1" stop-color="rgb(11.938477%, 67.808533%, 30.236816%)" offset="0.222656"/><stop stop-opacity="1" stop-color="rgb(12.159729%, 67.858887%, 30.209351%)" offset="0.226562"/><stop stop-opacity="1" stop-color="rgb(12.380981%, 67.909241%, 30.180359%)" offset="0.230469"/><stop stop-opacity="1" stop-color="rgb(12.602234%, 67.959595%, 30.152893%)" offset="0.234375"/><stop stop-opacity="1" stop-color="rgb(12.82196%, 68.009949%, 30.123901%)" offset="0.238281"/><stop stop-opacity="1" stop-color="rgb(13.043213%, 68.060303%, 30.096436%)" offset="0.242188"/><stop stop-opacity="1" stop-color="rgb(13.264465%, 68.110657%, 30.067444%)" offset="0.246094"/><stop stop-opacity="1" stop-color="rgb(13.485718%, 68.161011%, 30.039978%)" offset="0.25"/><stop stop-opacity="1" stop-color="rgb(13.70697%, 68.211365%, 30.010986%)" offset="0.253906"/><stop stop-opacity="1" stop-color="rgb(13.928223%, 68.261719%, 29.983521%)" offset="0.257812"/><stop stop-opacity="1" stop-color="rgb(14.149475%, 68.310547%, 29.954529%)" offset="0.261719"/><stop stop-opacity="1" stop-color="rgb(14.370728%, 68.360901%, 29.927063%)" offset="0.265625"/><stop stop-opacity="1" stop-color="rgb(14.59198%, 68.411255%, 29.898071%)" offset="0.269531"/><stop stop-opacity="1" stop-color="rgb(14.813232%, 68.461609%, 29.870605%)" offset="0.273437"/><stop stop-opacity="1" stop-color="rgb(15.034485%, 68.511963%, 29.841614%)" offset="0.277344"/><stop stop-opacity="1" stop-color="rgb(15.255737%, 68.562317%, 29.814148%)" offset="0.28125"/><stop stop-opacity="1" stop-color="rgb(15.47699%, 68.612671%, 29.785156%)" offset="0.285156"/><stop stop-opacity="1" stop-color="rgb(15.698242%, 68.663025%, 29.75769%)" offset="0.289062"/><stop stop-opacity="1" stop-color="rgb(15.919495%, 68.713379%, 29.728699%)" offset="0.292969"/><stop stop-opacity="1" stop-color="rgb(16.140747%, 68.763733%, 29.701233%)" offset="0.296875"/><stop stop-opacity="1" stop-color="rgb(16.362%, 68.812561%, 29.672241%)" offset="0.300781"/><stop stop-opacity="1" stop-color="rgb(16.583252%, 68.862915%, 29.644775%)" offset="0.304688"/><stop stop-opacity="1" stop-color="rgb(16.804504%, 68.913269%, 29.615784%)" offset="0.308594"/><stop stop-opacity="1" stop-color="rgb(17.025757%, 68.963623%, 29.588318%)" offset="0.3125"/><stop stop-opacity="1" stop-color="rgb(17.247009%, 69.013977%, 29.559326%)" offset="0.316406"/><stop stop-opacity="1" stop-color="rgb(17.468262%, 69.064331%, 29.53186%)" offset="0.320312"/><stop stop-opacity="1" stop-color="rgb(17.689514%, 69.114685%, 29.502869%)" offset="0.324219"/><stop stop-opacity="1" stop-color="rgb(17.910767%, 69.165039%, 29.475403%)" offset="0.328125"/><stop stop-opacity="1" stop-color="rgb(18.132019%, 69.215393%, 29.446411%)" offset="0.332031"/><stop stop-opacity="1" stop-color="rgb(18.353271%, 69.265747%, 29.418945%)" offset="0.335937"/><stop stop-opacity="1" stop-color="rgb(18.574524%, 69.316101%, 29.389954%)" offset="0.339844"/><stop stop-opacity="1" stop-color="rgb(18.795776%, 69.366455%, 29.362488%)" offset="0.34375"/><stop stop-opacity="1" stop-color="rgb(19.017029%, 69.415283%, 29.333496%)" offset="0.347656"/><stop stop-opacity="1" stop-color="rgb(19.238281%, 69.465637%, 29.30603%)" offset="0.351562"/><stop stop-opacity="1" stop-color="rgb(19.459534%, 69.515991%, 29.277039%)" offset="0.355469"/><stop stop-opacity="1" stop-color="rgb(19.680786%, 69.566345%, 29.249573%)" offset="0.359375"/><stop stop-opacity="1" stop-color="rgb(19.902039%, 69.616699%, 29.220581%)" offset="0.363281"/><stop stop-opacity="1" stop-color="rgb(20.123291%, 69.667053%, 29.193115%)" offset="0.367187"/><stop stop-opacity="1" stop-color="rgb(20.344543%, 69.717407%, 29.164124%)" offset="0.371094"/><stop stop-opacity="1" stop-color="rgb(20.565796%, 69.767761%, 29.136658%)" offset="0.375"/><stop stop-opacity="1" stop-color="rgb(20.787048%, 69.818115%, 29.107666%)" offset="0.378906"/><stop stop-opacity="1" stop-color="rgb(21.008301%, 69.868469%, 29.0802%)" offset="0.382812"/><stop stop-opacity="1" stop-color="rgb(21.229553%, 69.917297%, 29.051208%)" offset="0.386719"/><stop stop-opacity="1" stop-color="rgb(21.450806%, 69.967651%, 29.023743%)" offset="0.390625"/><stop stop-opacity="1" stop-color="rgb(21.670532%, 70.018005%, 28.994751%)" offset="0.394531"/><stop stop-opacity="1" stop-color="rgb(21.891785%, 70.068359%, 28.967285%)" offset="0.398438"/><stop stop-opacity="1" stop-color="rgb(22.113037%, 70.118713%, 28.938293%)" offset="0.402344"/><stop stop-opacity="1" stop-color="rgb(22.33429%, 70.169067%, 28.910828%)" offset="0.40625"/><stop stop-opacity="1" stop-color="rgb(22.555542%, 70.219421%, 28.881836%)" offset="0.410156"/><stop stop-opacity="1" stop-color="rgb(22.776794%, 70.269775%, 28.85437%)" offset="0.414062"/><stop stop-opacity="1" stop-color="rgb(22.998047%, 70.320129%, 28.825378%)" offset="0.417969"/><stop stop-opacity="1" stop-color="rgb(23.219299%, 70.370483%, 28.797913%)" offset="0.421875"/><stop stop-opacity="1" stop-color="rgb(23.440552%, 70.419312%, 28.768921%)" offset="0.425781"/><stop stop-opacity="1" stop-color="rgb(23.661804%, 70.469666%, 28.741455%)" offset="0.429687"/><stop stop-opacity="1" stop-color="rgb(23.883057%, 70.52002%, 28.712463%)" offset="0.433594"/><stop stop-opacity="1" stop-color="rgb(24.104309%, 70.570374%, 28.684998%)" offset="0.4375"/><stop stop-opacity="1" stop-color="rgb(24.325562%, 70.620728%, 28.656006%)" offset="0.441406"/><stop stop-opacity="1" stop-color="rgb(24.546814%, 70.671082%, 28.62854%)" offset="0.445312"/><stop stop-opacity="1" stop-color="rgb(24.768066%, 70.721436%, 28.599548%)" offset="0.449219"/><stop stop-opacity="1" stop-color="rgb(24.989319%, 70.77179%, 28.572083%)" offset="0.453125"/><stop stop-opacity="1" stop-color="rgb(25.210571%, 70.822144%, 28.543091%)" offset="0.457031"/><stop stop-opacity="1" stop-color="rgb(25.431824%, 70.872498%, 28.515625%)" offset="0.460937"/><stop stop-opacity="1" stop-color="rgb(25.653076%, 70.922852%, 28.486633%)" offset="0.464844"/><stop stop-opacity="1" stop-color="rgb(25.874329%, 70.973206%, 28.459167%)" offset="0.46875"/><stop stop-opacity="1" stop-color="rgb(26.095581%, 71.022034%, 28.431702%)" offset="0.472656"/><stop stop-opacity="1" stop-color="rgb(26.316833%, 71.072388%, 28.404236%)" offset="0.476562"/><stop stop-opacity="1" stop-color="rgb(26.538086%, 71.122742%, 28.375244%)" offset="0.480469"/><stop stop-opacity="1" stop-color="rgb(26.759338%, 71.173096%, 28.347778%)" offset="0.484375"/><stop stop-opacity="1" stop-color="rgb(26.980591%, 71.22345%, 28.318787%)" offset="0.488281"/><stop stop-opacity="1" stop-color="rgb(27.201843%, 71.273804%, 28.291321%)" offset="0.492187"/><stop stop-opacity="1" stop-color="rgb(27.423096%, 71.324158%, 28.262329%)" offset="0.496094"/><stop stop-opacity="1" stop-color="rgb(27.644348%, 71.374512%, 28.234863%)" offset="0.5"/><stop stop-opacity="1" stop-color="rgb(27.865601%, 71.424866%, 28.205872%)" offset="0.503906"/><stop stop-opacity="1" stop-color="rgb(28.086853%, 71.47522%, 28.178406%)" offset="0.507813"/><stop stop-opacity="1" stop-color="rgb(28.308105%, 71.524048%, 28.149414%)" offset="0.511719"/><stop stop-opacity="1" stop-color="rgb(28.529358%, 71.574402%, 28.121948%)" offset="0.515625"/><stop stop-opacity="1" stop-color="rgb(28.75061%, 71.624756%, 28.092957%)" offset="0.519531"/><stop stop-opacity="1" stop-color="rgb(28.971863%, 71.67511%, 28.065491%)" offset="0.523438"/><stop stop-opacity="1" stop-color="rgb(29.193115%, 71.725464%, 28.036499%)" offset="0.527344"/><stop stop-opacity="1" stop-color="rgb(29.414368%, 71.775818%, 28.009033%)" offset="0.53125"/><stop stop-opacity="1" stop-color="rgb(29.63562%, 71.826172%, 27.980042%)" offset="0.535156"/><stop stop-opacity="1" stop-color="rgb(29.856873%, 71.876526%, 27.952576%)" offset="0.539062"/><stop stop-opacity="1" stop-color="rgb(30.078125%, 71.92688%, 27.923584%)" offset="0.542969"/><stop stop-opacity="1" stop-color="rgb(30.299377%, 71.977234%, 27.896118%)" offset="0.546875"/><stop stop-opacity="1" stop-color="rgb(30.52063%, 72.027588%, 27.867126%)" offset="0.550781"/><stop stop-opacity="1" stop-color="rgb(30.741882%, 72.077942%, 27.839661%)" offset="0.554688"/><stop stop-opacity="1" stop-color="rgb(30.961609%, 72.12677%, 27.810669%)" offset="0.558594"/><stop stop-opacity="1" stop-color="rgb(31.182861%, 72.177124%, 27.783203%)" offset="0.5625"/><stop stop-opacity="1" stop-color="rgb(31.404114%, 72.227478%, 27.754211%)" offset="0.566406"/><stop stop-opacity="1" stop-color="rgb(31.625366%, 72.277832%, 27.726746%)" offset="0.570312"/><stop stop-opacity="1" stop-color="rgb(31.846619%, 72.328186%, 27.697754%)" offset="0.574219"/><stop stop-opacity="1" stop-color="rgb(32.067871%, 72.37854%, 27.670288%)" offset="0.578125"/><stop stop-opacity="1" stop-color="rgb(32.289124%, 72.428894%, 27.641296%)" offset="0.582031"/><stop stop-opacity="1" stop-color="rgb(32.510376%, 72.479248%, 27.613831%)" offset="0.585938"/><stop stop-opacity="1" stop-color="rgb(32.731628%, 72.529602%, 27.584839%)" offset="0.589844"/><stop stop-opacity="1" stop-color="rgb(32.952881%, 72.579956%, 27.557373%)" offset="0.59375"/><stop stop-opacity="1" stop-color="rgb(33.174133%, 72.628784%, 27.528381%)" offset="0.597656"/><stop stop-opacity="1" stop-color="rgb(33.395386%, 72.679138%, 27.500916%)" offset="0.601562"/><stop stop-opacity="1" stop-color="rgb(33.616638%, 72.729492%, 27.471924%)" offset="0.605469"/><stop stop-opacity="1" stop-color="rgb(33.837891%, 72.779846%, 27.444458%)" offset="0.609375"/><stop stop-opacity="1" stop-color="rgb(34.059143%, 72.8302%, 27.415466%)" offset="0.613281"/><stop stop-opacity="1" stop-color="rgb(34.280396%, 72.880554%, 27.388%)" offset="0.617188"/><stop stop-opacity="1" stop-color="rgb(34.501648%, 72.930908%, 27.359009%)" offset="0.621094"/><stop stop-opacity="1" stop-color="rgb(34.7229%, 72.981262%, 27.331543%)" offset="0.625"/><stop stop-opacity="1" stop-color="rgb(34.944153%, 73.031616%, 27.302551%)" offset="0.628906"/><stop stop-opacity="1" stop-color="rgb(35.165405%, 73.08197%, 27.275085%)" offset="0.632812"/><stop stop-opacity="1" stop-color="rgb(35.386658%, 73.130798%, 27.246094%)" offset="0.636719"/><stop stop-opacity="1" stop-color="rgb(35.60791%, 73.181152%, 27.218628%)" offset="0.640625"/><stop stop-opacity="1" stop-color="rgb(35.829163%, 73.231506%, 27.189636%)" offset="0.644531"/><stop stop-opacity="1" stop-color="rgb(36.050415%, 73.28186%, 27.16217%)" offset="0.648438"/><stop stop-opacity="1" stop-color="rgb(36.271667%, 73.332214%, 27.133179%)" offset="0.652344"/><stop stop-opacity="1" stop-color="rgb(36.49292%, 73.382568%, 27.105713%)" offset="0.65625"/><stop stop-opacity="1" stop-color="rgb(36.714172%, 73.432922%, 27.076721%)" offset="0.660156"/><stop stop-opacity="1" stop-color="rgb(36.935425%, 73.483276%, 27.049255%)" offset="0.664062"/><stop stop-opacity="1" stop-color="rgb(37.156677%, 73.53363%, 27.020264%)" offset="0.667969"/><stop stop-opacity="1" stop-color="rgb(37.37793%, 73.583984%, 26.992798%)" offset="0.671875"/><stop stop-opacity="1" stop-color="rgb(37.599182%, 73.634338%, 26.963806%)" offset="0.675781"/><stop stop-opacity="1" stop-color="rgb(37.820435%, 73.684692%, 26.93634%)" offset="0.679688"/><stop stop-opacity="1" stop-color="rgb(38.041687%, 73.733521%, 26.907349%)" offset="0.683594"/><stop stop-opacity="1" stop-color="rgb(38.262939%, 73.783875%, 26.879883%)" offset="0.6875"/><stop stop-opacity="1" stop-color="rgb(38.484192%, 73.834229%, 26.850891%)" offset="0.691406"/><stop stop-opacity="1" stop-color="rgb(38.705444%, 73.884583%, 26.823425%)" offset="0.695312"/><stop stop-opacity="1" stop-color="rgb(38.926697%, 73.934937%, 26.794434%)" offset="0.699219"/><stop stop-opacity="1" stop-color="rgb(39.147949%, 73.985291%, 26.766968%)" offset="0.703125"/><stop stop-opacity="1" stop-color="rgb(39.369202%, 74.035645%, 26.737976%)" offset="0.707031"/><stop stop-opacity="1" stop-color="rgb(39.590454%, 74.085999%, 26.71051%)" offset="0.710938"/><stop stop-opacity="1" stop-color="rgb(39.810181%, 74.136353%, 26.681519%)" offset="0.714844"/><stop stop-opacity="1" stop-color="rgb(40.031433%, 74.186707%, 26.654053%)" offset="0.71875"/><stop stop-opacity="1" stop-color="rgb(40.252686%, 74.235535%, 26.625061%)" offset="0.722656"/><stop stop-opacity="1" stop-color="rgb(40.473938%, 74.285889%, 26.597595%)" offset="0.726562"/><stop stop-opacity="1" stop-color="rgb(40.69519%, 74.336243%, 26.568604%)" offset="0.730469"/><stop stop-opacity="1" stop-color="rgb(40.916443%, 74.386597%, 26.541138%)" offset="0.734375"/><stop stop-opacity="1" stop-color="rgb(41.137695%, 74.436951%, 26.512146%)" offset="0.738281"/><stop stop-opacity="1" stop-color="rgb(41.358948%, 74.487305%, 26.48468%)" offset="0.742188"/><stop stop-opacity="1" stop-color="rgb(41.5802%, 74.537659%, 26.457214%)" offset="0.746094"/><stop stop-opacity="1" stop-color="rgb(41.801453%, 74.588013%, 26.429749%)" offset="0.75"/><stop stop-opacity="1" stop-color="rgb(42.022705%, 74.638367%, 26.400757%)" offset="0.753906"/><stop stop-opacity="1" stop-color="rgb(42.243958%, 74.688721%, 26.373291%)" offset="0.757812"/><stop stop-opacity="1" stop-color="rgb(42.46521%, 74.737549%, 26.344299%)" offset="0.761719"/><stop stop-opacity="1" stop-color="rgb(42.686462%, 74.787903%, 26.316833%)" offset="0.765625"/><stop stop-opacity="1" stop-color="rgb(42.907715%, 74.838257%, 26.287842%)" offset="0.769531"/><stop stop-opacity="1" stop-color="rgb(43.128967%, 74.888611%, 26.260376%)" offset="0.773438"/><stop stop-opacity="1" stop-color="rgb(43.35022%, 74.938965%, 26.231384%)" offset="0.777344"/><stop stop-opacity="1" stop-color="rgb(43.571472%, 74.989319%, 26.203918%)" offset="0.78125"/><stop stop-opacity="1" stop-color="rgb(43.792725%, 75.039673%, 26.174927%)" offset="0.785156"/><stop stop-opacity="1" stop-color="rgb(44.013977%, 75.090027%, 26.147461%)" offset="0.789062"/><stop stop-opacity="1" stop-color="rgb(44.235229%, 75.140381%, 26.118469%)" offset="0.792969"/><stop stop-opacity="1" stop-color="rgb(44.456482%, 75.190735%, 26.091003%)" offset="0.796875"/><stop stop-opacity="1" stop-color="rgb(44.677734%, 75.241089%, 26.062012%)" offset="0.800781"/><stop stop-opacity="1" stop-color="rgb(44.898987%, 75.291443%, 26.034546%)" offset="0.804688"/><stop stop-opacity="1" stop-color="rgb(45.120239%, 75.340271%, 26.005554%)" offset="0.808594"/><stop stop-opacity="1" stop-color="rgb(45.341492%, 75.390625%, 25.978088%)" offset="0.8125"/><stop stop-opacity="1" stop-color="rgb(45.562744%, 75.440979%, 25.949097%)" offset="0.816406"/><stop stop-opacity="1" stop-color="rgb(45.783997%, 75.491333%, 25.921631%)" offset="0.820312"/><stop stop-opacity="1" stop-color="rgb(46.005249%, 75.541687%, 25.892639%)" offset="0.824219"/><stop stop-opacity="1" stop-color="rgb(46.226501%, 75.592041%, 25.865173%)" offset="0.828125"/><stop stop-opacity="1" stop-color="rgb(46.447754%, 75.642395%, 25.836182%)" offset="0.832031"/><stop stop-opacity="1" stop-color="rgb(46.669006%, 75.692749%, 25.808716%)" offset="0.835938"/><stop stop-opacity="1" stop-color="rgb(46.890259%, 75.743103%, 25.779724%)" offset="0.839844"/><stop stop-opacity="1" stop-color="rgb(47.111511%, 75.793457%, 25.752258%)" offset="0.84375"/><stop stop-opacity="1" stop-color="rgb(47.332764%, 75.842285%, 25.723267%)" offset="0.847656"/><stop stop-opacity="1" stop-color="rgb(47.554016%, 75.892639%, 25.695801%)" offset="0.851563"/><stop stop-opacity="1" stop-color="rgb(47.775269%, 75.942993%, 25.666809%)" offset="0.855469"/><stop stop-opacity="1" stop-color="rgb(47.996521%, 75.993347%, 25.639343%)" offset="0.859375"/><stop stop-opacity="1" stop-color="rgb(48.217773%, 76.043701%, 25.610352%)" offset="0.863281"/><stop stop-opacity="1" stop-color="rgb(48.439026%, 76.094055%, 25.582886%)" offset="0.867188"/><stop stop-opacity="1" stop-color="rgb(48.658752%, 76.144409%, 25.553894%)" offset="0.871094"/><stop stop-opacity="1" stop-color="rgb(48.880005%, 76.194763%, 25.526428%)" offset="0.875"/><stop stop-opacity="1" stop-color="rgb(49.101257%, 76.245117%, 25.497437%)" offset="0.878906"/><stop stop-opacity="1" stop-color="rgb(49.32251%, 76.295471%, 25.469971%)" offset="0.882813"/><stop stop-opacity="1" stop-color="rgb(49.543762%, 76.345825%, 25.440979%)" offset="0.886719"/><stop stop-opacity="1" stop-color="rgb(49.765015%, 76.396179%, 25.413513%)" offset="0.890625"/><stop stop-opacity="1" stop-color="rgb(49.986267%, 76.445007%, 25.384521%)" offset="0.894531"/><stop stop-opacity="1" stop-color="rgb(50.20752%, 76.495361%, 25.357056%)" offset="0.898438"/><stop stop-opacity="1" stop-color="rgb(50.428772%, 76.545715%, 25.328064%)" offset="0.902344"/><stop stop-opacity="1" stop-color="rgb(50.650024%, 76.596069%, 25.300598%)" offset="0.90625"/><stop stop-opacity="1" stop-color="rgb(50.871277%, 76.646423%, 25.271606%)" offset="0.910156"/><stop stop-opacity="1" stop-color="rgb(51.092529%, 76.696777%, 25.244141%)" offset="0.914062"/><stop stop-opacity="1" stop-color="rgb(51.313782%, 76.747131%, 25.215149%)" offset="0.917969"/><stop stop-opacity="1" stop-color="rgb(51.535034%, 76.797485%, 25.187683%)" offset="0.921875"/><stop stop-opacity="1" stop-color="rgb(51.756287%, 76.847839%, 25.158691%)" offset="0.925781"/><stop stop-opacity="1" stop-color="rgb(51.977539%, 76.898193%, 25.131226%)" offset="0.929688"/><stop stop-opacity="1" stop-color="rgb(52.198792%, 76.947021%, 25.102234%)" offset="0.933594"/><stop stop-opacity="1" stop-color="rgb(52.420044%, 76.997375%, 25.074768%)" offset="0.9375"/><stop stop-opacity="1" stop-color="rgb(52.641296%, 77.047729%, 25.045776%)" offset="0.941406"/><stop stop-opacity="1" stop-color="rgb(52.862549%, 77.098083%, 25.018311%)" offset="0.945312"/><stop stop-opacity="1" stop-color="rgb(53.083801%, 77.148438%, 24.989319%)" offset="0.949219"/><stop stop-opacity="1" stop-color="rgb(53.305054%, 77.198792%, 24.961853%)" offset="0.953125"/><stop stop-opacity="1" stop-color="rgb(53.526306%, 77.249146%, 24.932861%)" offset="0.957031"/><stop stop-opacity="1" stop-color="rgb(53.747559%, 77.2995%, 24.905396%)" offset="0.960938"/><stop stop-opacity="1" stop-color="rgb(53.968811%, 77.349854%, 24.876404%)" offset="0.964844"/><stop stop-opacity="1" stop-color="rgb(54.190063%, 77.400208%, 24.848938%)" offset="0.96875"/><stop stop-opacity="1" stop-color="rgb(54.411316%, 77.449036%, 24.819946%)" offset="0.972656"/><stop stop-opacity="1" stop-color="rgb(54.632568%, 77.49939%, 24.79248%)" offset="0.976562"/><stop stop-opacity="1" stop-color="rgb(54.853821%, 77.549744%, 24.763489%)" offset="0.980469"/><stop stop-opacity="1" stop-color="rgb(55.075073%, 77.600098%, 24.736023%)" offset="0.984375"/><stop stop-opacity="1" stop-color="rgb(55.181885%, 77.624512%, 24.72229%)" offset="1"/></linearGradient><clipPath id="c7b1347e65"><path d="M 123.65625 154 L 204.65625 154 L 204.65625 200.449219 L 123.65625 200.449219 Z M 123.65625 154 " clip-rule="nonzero"/></clipPath><clipPath id="2812b58716"><path d="M 210.769531 148.070312 L 267.019531 148.070312 L 267.019531 204.320312 L 210.769531 204.320312 Z M 210.769531 148.070312 " clip-rule="nonzero"/></clipPath></defs><g clip-path="url(#1708457e65)"><g clip-path="url(#673fcd80e8)"><path fill="url(#b772ba14cc)" d="M 54.289062 148.078125 L 54.289062 199.070312 L 118.761719 199.070312 L 118.761719 148.078125 Z M 54.289062 148.078125 " fill-rule="nonzero"/></g></g><g clip-path="url(#c7b1347e65)"><path fill="#6cc7f4" d="M 123.964844 163.460938 L 124.015625 163.65625 C 123.992188 163.867188 123.972656 163.972656 123.964844 163.460938 Z M 137.175781 154.359375 L 136.832031 154.410156 C 136.90625 154.414062 136.988281 154.421875 137.066406 154.421875 C 137.152344 154.40625 137.195312 154.386719 137.175781 154.359375 Z M 123.789062 170.601562 C 123.835938 170.363281 123.871094 170.09375 123.898438 169.808594 C 123.859375 169.703125 123.8125 169.988281 123.789062 170.601562 Z M 142.695312 154.386719 C 143.066406 154.394531 143.390625 154.402344 143.738281 154.410156 C 143.503906 154.386719 143.136719 154.375 142.695312 154.386719 Z M 148.585938 200.308594 C 148.652344 200.3125 148.738281 200.320312 148.847656 200.324219 Z M 204.300781 190.726562 L 204.351562 190.921875 C 204.347656 190.410156 204.324219 190.515625 204.300781 190.726562 Z M 191.140625 200.023438 L 191.484375 199.972656 C 191.410156 199.96875 191.328125 199.960938 191.25 199.960938 C 191.164062 199.976562 191.125 199.996094 191.140625 200.023438 Z M 204.523438 183.78125 C 204.480469 184.019531 204.445312 184.289062 204.417969 184.574219 C 204.457031 184.679688 204.503906 184.390625 204.523438 183.78125 Z M 185.621094 199.996094 C 185.25 199.988281 184.925781 199.980469 184.578125 199.972656 C 184.8125 199.996094 185.183594 200.007812 185.621094 199.996094 Z M 179.730469 154.074219 C 179.664062 154.070312 179.578125 154.0625 179.46875 154.058594 Z M 204.328125 164.359375 C 204.253906 167.574219 204.386719 168.121094 204.347656 171.566406 L 204.40625 169.953125 C 204.597656 171.742188 204.296875 175.238281 204.515625 175.769531 C 204.484375 177.832031 204.265625 179.601562 204.304688 182.113281 L 204.496094 181.042969 L 204.5 183.332031 L 204.367188 183.363281 C 204.359375 184.105469 204.386719 184.480469 204.417969 184.574219 C 204.269531 186.140625 204.351562 188.328125 204.238281 190.480469 L 204.300781 190.726562 C 204.285156 190.890625 204.265625 191.117188 204.253906 191.175781 C 204.371094 191.601562 204.328125 193.324219 204.433594 193.414062 C 204.457031 192.722656 204.515625 191.117188 204.449219 191.246094 C 204.578125 189.496094 204.519531 193.394531 204.523438 194.542969 C 204.460938 193.300781 204.441406 194.902344 204.417969 195.597656 C 204.433594 195.710938 204.441406 195.480469 204.46875 195.363281 C 204.476562 195.632812 204.480469 195.882812 204.480469 196.109375 C 204.476562 196.226562 204.476562 196.335938 204.476562 196.441406 C 204.476562 196.464844 204.472656 196.5 204.46875 196.53125 C 204.46875 196.566406 204.464844 196.597656 204.464844 196.628906 C 204.457031 196.695312 204.453125 196.757812 204.445312 196.820312 C 204.382812 197.320312 204.21875 197.730469 204.023438 198.078125 C 203.824219 198.421875 203.605469 198.71875 203.339844 198.992188 C 203.074219 199.261719 202.78125 199.527344 202.398438 199.785156 L 202.160156 199.832031 C 202.078125 199.84375 201.996094 199.847656 201.917969 199.855469 C 201.839844 199.890625 201.757812 199.921875 201.671875 199.945312 C 201.589844 199.96875 201.507812 199.996094 201.421875 200.015625 C 201.25 200.050781 201.078125 200.089844 200.902344 200.101562 C 200.714844 200.121094 200.585938 200.125 200.441406 200.132812 L 200.015625 200.152344 C 199.859375 199.910156 197.601562 200.128906 197.324219 199.902344 C 195.371094 199.898438 197.585938 200.042969 196.886719 200.015625 C 195.066406 200.066406 191.867188 199.84375 191.246094 199.960938 C 190.578125 199.925781 189.886719 199.914062 189.210938 199.910156 C 188.902344 199.929688 188.605469 199.945312 188.3125 199.949219 C 187.25 199.9375 187.089844 199.921875 187.238281 199.894531 C 187.03125 199.890625 186.824219 199.886719 186.628906 199.878906 L 186.535156 199.984375 C 185.890625 199.960938 185.144531 199.914062 184.496094 199.925781 C 184.605469 199.9375 184.695312 199.949219 184.75 199.96875 C 184.679688 199.960938 184.554688 199.953125 184.398438 199.945312 C 184.4375 199.953125 184.5 199.960938 184.578125 199.96875 C 183.757812 199.949219 182.988281 199.9375 182.25 199.925781 C 182.195312 199.929688 182.144531 199.933594 182.097656 199.9375 C 182.117188 199.980469 184.070312 199.984375 182.8125 200.003906 C 180.792969 199.96875 179.441406 199.984375 178.214844 200.003906 C 178.402344 200.015625 178.675781 200.027344 179.070312 200.035156 C 178.367188 200.066406 177.507812 200.0625 176.554688 200.042969 C 175.539062 200.0625 174.433594 200.082031 172.9375 200.074219 L 173.296875 200.152344 C 172.832031 200.136719 172.476562 200.101562 172.027344 200.128906 L 172.273438 200.179688 C 171.6875 200.179688 167.523438 200.074219 164.78125 200.101562 L 166.179688 200.195312 L 163.738281 200.085938 L 164.007812 200.222656 C 163.164062 200.085938 160.308594 200.175781 158.007812 200.132812 L 158.023438 200.222656 L 156.628906 200.171875 L 157.101562 200.230469 C 155.71875 200.226562 154.082031 200.078125 152.496094 200.148438 C 153.519531 200.121094 153.765625 200.261719 153.671875 200.320312 L 149.5 200.167969 C 149.40625 200.226562 147.867188 200.246094 148.585938 200.300781 L 147.210938 200.214844 L 147.339844 200.285156 C 140.824219 200.414062 135.195312 199.90625 128.703125 200.210938 L 128.820312 200.238281 L 127.863281 200.199219 L 127.628906 200.191406 C 127.539062 200.1875 127.429688 200.179688 127.332031 200.167969 C 127.234375 200.164062 127.136719 200.144531 127.035156 200.125 C 126.9375 200.109375 126.839844 200.089844 126.746094 200.058594 C 125.96875 199.855469 125.289062 199.378906 124.808594 198.769531 C 124.539062 198.445312 124.375 198.21875 124.191406 197.917969 C 124.113281 197.761719 124.019531 197.589844 123.949219 197.359375 C 123.871094 197.128906 123.816406 196.84375 123.796875 196.480469 C 123.925781 197.015625 123.8125 194.292969 123.921875 193.578125 C 123.871094 192.6875 123.835938 193.601562 123.785156 193.847656 C 123.65625 190.195312 123.871094 187.296875 123.78125 183.308594 C 123.960938 187.277344 123.917969 187.296875 123.988281 190.023438 C 124.0625 186.808594 123.929688 186.257812 123.972656 182.8125 L 123.914062 184.425781 C 123.71875 182.640625 124.019531 179.144531 123.800781 178.609375 C 123.835938 176.546875 124.050781 174.78125 124.015625 172.265625 L 123.824219 173.339844 L 123.820312 171.046875 L 123.949219 171.015625 C 123.957031 170.277344 123.929688 169.898438 123.898438 169.808594 C 124.050781 168.238281 123.964844 166.050781 124.082031 163.898438 L 124.015625 163.652344 C 124.03125 163.488281 124.050781 163.261719 124.0625 163.207031 C 123.949219 162.78125 123.988281 161.058594 123.882812 160.964844 C 123.859375 161.660156 123.800781 163.261719 123.871094 163.136719 C 123.738281 164.886719 123.796875 160.988281 123.796875 159.839844 C 123.859375 161.082031 123.875 159.480469 123.898438 158.785156 C 123.882812 158.675781 123.875 158.90625 123.847656 159.019531 C 123.839844 158.75 123.835938 158.503906 123.835938 158.273438 C 123.839844 158.15625 123.839844 158.046875 123.84375 157.941406 C 123.84375 157.917969 123.84375 157.886719 123.847656 157.851562 C 123.847656 157.820312 123.851562 157.785156 123.855469 157.753906 C 123.859375 157.6875 123.867188 157.625 123.871094 157.5625 C 123.933594 157.0625 124.097656 156.652344 124.292969 156.308594 C 124.492188 155.960938 124.710938 155.664062 124.980469 155.390625 C 125.242188 155.117188 125.539062 154.855469 125.921875 154.597656 L 126.160156 154.550781 C 126.238281 154.539062 126.320312 154.535156 126.398438 154.527344 C 126.480469 154.492188 126.558594 154.460938 126.644531 154.4375 C 126.726562 154.414062 126.808594 154.386719 126.894531 154.363281 C 127.066406 154.332031 127.238281 154.292969 127.414062 154.28125 C 127.605469 154.261719 127.734375 154.257812 127.878906 154.25 L 128.304688 154.230469 C 128.457031 154.472656 130.714844 154.253906 130.992188 154.476562 C 132.945312 154.484375 130.734375 154.339844 131.429688 154.363281 C 133.246094 154.316406 136.449219 154.535156 137.066406 154.421875 C 137.734375 154.457031 138.425781 154.464844 139.101562 154.472656 C 139.414062 154.449219 139.710938 154.433594 140 154.433594 C 141.066406 154.441406 141.226562 154.460938 141.074219 154.484375 C 141.285156 154.488281 141.488281 154.492188 141.683594 154.5 L 141.777344 154.398438 C 142.421875 154.421875 143.167969 154.464844 143.816406 154.457031 C 143.710938 154.445312 143.621094 154.429688 143.566406 154.410156 C 143.636719 154.417969 143.761719 154.425781 143.917969 154.433594 C 143.875 154.425781 143.816406 154.417969 143.738281 154.410156 C 144.554688 154.433594 145.324219 154.445312 146.066406 154.453125 C 146.117188 154.453125 146.171875 154.449219 146.21875 154.445312 C 146.199219 154.402344 144.242188 154.394531 145.5 154.375 C 147.523438 154.410156 148.871094 154.398438 150.101562 154.375 C 149.910156 154.363281 149.640625 154.351562 149.246094 154.347656 C 149.949219 154.3125 150.808594 154.316406 151.761719 154.339844 C 152.777344 154.316406 153.882812 154.296875 155.378906 154.304688 L 155.015625 154.226562 C 155.484375 154.246094 155.839844 154.28125 156.289062 154.253906 L 156.042969 154.199219 C 156.625 154.199219 160.792969 154.308594 163.535156 154.28125 L 162.136719 154.1875 L 164.578125 154.296875 L 164.308594 154.15625 C 165.152344 154.296875 168.007812 154.207031 170.308594 154.246094 L 170.292969 154.160156 L 171.6875 154.210938 L 171.214844 154.148438 C 172.59375 154.15625 174.234375 154.304688 175.820312 154.230469 C 174.796875 154.257812 174.550781 154.117188 174.644531 154.058594 L 178.816406 154.210938 C 178.910156 154.15625 180.449219 154.132812 179.730469 154.078125 L 181.101562 154.164062 L 180.976562 154.089844 C 187.492188 153.960938 193.117188 154.46875 199.613281 154.164062 L 199.496094 154.136719 L 200.449219 154.175781 L 200.6875 154.1875 C 200.777344 154.191406 200.886719 154.203125 200.980469 154.210938 C 201.082031 154.214844 201.179688 154.234375 201.277344 154.253906 C 201.378906 154.273438 201.476562 154.289062 201.570312 154.320312 C 202.347656 154.523438 203.027344 155 203.507812 155.609375 C 203.777344 155.9375 203.941406 156.160156 204.121094 156.460938 C 204.203125 156.617188 204.296875 156.789062 204.367188 157.023438 C 204.445312 157.25 204.5 157.539062 204.519531 157.902344 C 204.390625 157.363281 204.503906 160.085938 204.394531 160.800781 C 204.445312 161.695312 204.480469 160.777344 204.53125 160.535156 C 204.660156 164.183594 204.441406 167.085938 204.535156 171.070312 C 204.359375 167.101562 204.402344 167.085938 204.328125 164.359375 Z M 123.976562 170.15625 L 123.980469 169.53125 C 123.964844 169.757812 123.96875 169.960938 123.976562 170.15625 L 123.964844 171.140625 C 124.046875 171.035156 123.992188 170.664062 123.976562 170.15625 Z M 124.144531 173.390625 C 124.054688 173.414062 124.039062 175.011719 123.980469 175.488281 C 124 176.175781 124.074219 175.238281 124.128906 174.996094 C 124.136719 175.335938 124.128906 175.566406 124.109375 176.035156 C 124.292969 175.765625 124.050781 174.78125 124.144531 173.390625 Z M 124.296875 189.320312 L 124.292969 189.316406 C 124.292969 189.34375 124.292969 189.367188 124.292969 189.394531 C 124.292969 189.367188 124.296875 189.34375 124.296875 189.320312 Z M 124.320312 186.714844 C 124.320312 186.671875 124.320312 186.628906 124.320312 186.582031 L 124.28125 186.757812 C 124.296875 186.730469 124.308594 186.71875 124.320312 186.714844 Z M 124.589844 167.296875 L 124.589844 167.273438 C 124.574219 167.378906 124.558594 167.511719 124.550781 167.664062 C 124.566406 167.554688 124.578125 167.441406 124.589844 167.296875 Z M 124.648438 159.605469 C 124.625 160.132812 124.589844 160.625 124.53125 161.058594 C 124.582031 161.230469 124.617188 161.210938 124.648438 161.277344 Z M 129.464844 200.007812 C 129.023438 199.933594 128.699219 199.933594 128.347656 199.949219 C 128.167969 199.953125 127.988281 199.960938 127.78125 199.964844 C 127.730469 199.964844 127.675781 199.96875 127.621094 199.96875 C 127.566406 199.96875 127.492188 199.960938 127.425781 199.957031 C 127.355469 199.953125 127.285156 199.949219 127.210938 199.9375 C 127.140625 199.925781 127.066406 199.910156 126.984375 199.894531 C 126.882812 199.875 126.78125 199.832031 126.679688 199.808594 C 126.792969 199.84375 126.882812 199.878906 126.984375 199.894531 C 127.074219 199.914062 127.164062 199.9375 127.261719 199.957031 C 127.355469 199.972656 127.449219 199.984375 127.550781 200 C 127.738281 200.023438 127.902344 200.035156 128.097656 200.050781 C 128.480469 200.074219 128.925781 200.074219 129.464844 200.007812 Z M 132.214844 199.9375 C 132.171875 199.914062 131.957031 199.902344 131.714844 199.890625 C 131.277344 199.886719 130.839844 199.882812 130.398438 199.882812 C 130.351562 199.882812 130.300781 199.886719 130.242188 199.886719 C 129.554688 199.902344 131.410156 199.972656 132.214844 199.9375 Z M 147.402344 199.417969 L 146.582031 199.417969 C 146.730469 199.425781 146.859375 199.433594 146.96875 199.441406 C 147.148438 199.4375 147.300781 199.425781 147.402344 199.417969 Z M 159.113281 154.386719 C 158.507812 154.332031 158.394531 154.246094 157.335938 154.308594 C 158.203125 154.320312 158.128906 154.453125 159.09375 154.441406 C 159.046875 154.425781 159.085938 154.40625 159.113281 154.386719 Z M 170.980469 200.074219 C 170.113281 200.058594 170.183594 199.929688 169.222656 199.9375 C 169.269531 199.957031 169.230469 199.976562 169.203125 199.996094 C 169.808594 200.046875 169.917969 200.136719 170.980469 200.074219 Z M 181.734375 154.964844 C 181.589844 154.957031 181.457031 154.949219 181.351562 154.941406 C 181.171875 154.949219 181.015625 154.953125 180.914062 154.964844 Z M 196.101562 154.445312 C 196.144531 154.46875 196.359375 154.480469 196.601562 154.492188 C 197.039062 154.496094 197.480469 154.5 197.917969 154.5 C 197.964844 154.5 198.015625 154.496094 198.074219 154.496094 C 198.761719 154.476562 196.90625 154.410156 196.101562 154.445312 Z M 201.636719 154.574219 C 201.527344 154.539062 201.433594 154.503906 201.332031 154.488281 C 201.242188 154.46875 201.152344 154.445312 201.058594 154.425781 C 200.964844 154.410156 200.867188 154.398438 200.765625 154.382812 C 200.582031 154.359375 200.417969 154.347656 200.21875 154.332031 C 199.835938 154.308594 199.394531 154.308594 198.855469 154.375 C 199.292969 154.449219 199.621094 154.449219 199.972656 154.433594 C 200.148438 154.429688 200.332031 154.421875 200.535156 154.417969 C 200.585938 154.417969 200.640625 154.414062 200.695312 154.414062 C 200.753906 154.414062 200.824219 154.421875 200.890625 154.425781 C 200.960938 154.429688 201.03125 154.433594 201.105469 154.445312 C 201.175781 154.457031 201.253906 154.472656 201.332031 154.488281 C 201.433594 154.507812 201.539062 154.546875 201.636719 154.574219 Z M 204.019531 165.0625 L 204.023438 165.066406 C 204.023438 165.039062 204.023438 165.011719 204.023438 164.988281 C 204.023438 165.011719 204.023438 165.039062 204.019531 165.0625 Z M 203.726562 187.085938 L 203.726562 187.109375 C 203.742188 187.003906 203.757812 186.871094 203.765625 186.71875 C 203.75 186.828125 203.738281 186.941406 203.726562 187.085938 Z M 203.785156 193.324219 C 203.734375 193.148438 203.703125 193.167969 203.667969 193.101562 L 203.667969 194.773438 C 203.691406 194.25 203.726562 193.757812 203.785156 193.324219 Z M 204.035156 167.625 C 204.019531 167.652344 204.007812 167.667969 203.996094 167.667969 C 203.996094 167.710938 203.996094 167.753906 203.996094 167.800781 Z M 204.339844 184.226562 L 204.335938 184.851562 C 204.347656 184.625 204.347656 184.421875 204.339844 184.226562 L 204.351562 183.242188 C 204.269531 183.347656 204.324219 183.71875 204.339844 184.226562 Z M 204.191406 179.386719 C 204.179688 179.046875 204.1875 178.820312 204.207031 178.351562 C 204.023438 178.617188 204.269531 179.601562 204.175781 180.988281 C 204.261719 180.964844 204.277344 179.371094 204.335938 178.894531 C 204.320312 178.210938 204.242188 179.144531 204.191406 179.386719 Z M 204.191406 179.386719 " fill-opacity="1" fill-rule="nonzero"/></g><g clip-path="url(#2812b58716)"><path fill="#ffce46" d="M 267.019531 176.195312 C 267.019531 177.117188 266.972656 178.039062 266.882812 178.953125 C 266.792969 179.871094 266.65625 180.78125 266.476562 181.683594 C 266.296875 182.585938 266.074219 183.480469 265.808594 184.363281 C 265.539062 185.242188 265.230469 186.109375 264.878906 186.960938 C 264.523438 187.8125 264.132812 188.644531 263.695312 189.457031 C 263.261719 190.269531 262.789062 191.058594 262.277344 191.824219 C 261.765625 192.589844 261.21875 193.328125 260.632812 194.039062 C 260.050781 194.75 259.433594 195.433594 258.78125 196.085938 C 258.128906 196.734375 257.449219 197.355469 256.734375 197.9375 C 256.023438 198.523438 255.285156 199.070312 254.519531 199.582031 C 253.753906 200.09375 252.964844 200.566406 252.152344 201 C 251.339844 201.433594 250.507812 201.828125 249.65625 202.179688 C 248.804688 202.535156 247.9375 202.84375 247.058594 203.109375 C 246.175781 203.378906 245.285156 203.601562 244.378906 203.78125 C 243.476562 203.960938 242.566406 204.097656 241.648438 204.1875 C 240.734375 204.277344 239.8125 204.320312 238.894531 204.320312 C 237.972656 204.320312 237.054688 204.277344 236.136719 204.1875 C 235.21875 204.097656 234.308594 203.960938 233.40625 203.78125 C 232.503906 203.601562 231.609375 203.378906 230.730469 203.109375 C 229.847656 202.84375 228.980469 202.535156 228.128906 202.179688 C 227.277344 201.828125 226.449219 201.433594 225.636719 201 C 224.824219 200.566406 224.035156 200.09375 223.269531 199.582031 C 222.5 199.070312 221.761719 198.523438 221.050781 197.9375 C 220.339844 197.355469 219.65625 196.734375 219.003906 196.085938 C 218.355469 195.433594 217.738281 194.75 217.152344 194.039062 C 216.566406 193.328125 216.019531 192.589844 215.507812 191.824219 C 214.996094 191.058594 214.523438 190.269531 214.089844 189.457031 C 213.65625 188.644531 213.261719 187.8125 212.910156 186.960938 C 212.554688 186.109375 212.246094 185.242188 211.980469 184.363281 C 211.710938 183.480469 211.488281 182.585938 211.308594 181.683594 C 211.128906 180.78125 210.992188 179.871094 210.902344 178.953125 C 210.8125 178.039062 210.769531 177.117188 210.769531 176.195312 C 210.769531 175.277344 210.8125 174.355469 210.902344 173.441406 C 210.992188 172.523438 211.128906 171.613281 211.308594 170.710938 C 211.488281 169.808594 211.710938 168.914062 211.980469 168.03125 C 212.246094 167.152344 212.554688 166.285156 212.910156 165.433594 C 213.261719 164.582031 213.65625 163.75 214.089844 162.9375 C 214.523438 162.125 214.996094 161.335938 215.507812 160.570312 C 216.019531 159.804688 216.566406 159.066406 217.152344 158.355469 C 217.738281 157.644531 218.355469 156.960938 219.003906 156.308594 C 219.65625 155.660156 220.339844 155.039062 221.050781 154.457031 C 221.761719 153.871094 222.5 153.324219 223.269531 152.8125 C 224.035156 152.300781 224.824219 151.828125 225.636719 151.394531 C 226.449219 150.960938 227.277344 150.566406 228.128906 150.214844 C 228.980469 149.859375 229.847656 149.550781 230.730469 149.285156 C 231.609375 149.015625 232.503906 148.792969 233.40625 148.613281 C 234.308594 148.433594 235.21875 148.296875 236.136719 148.207031 C 237.054688 148.117188 237.972656 148.070312 238.894531 148.070312 C 239.8125 148.070312 240.734375 148.117188 241.648438 148.207031 C 242.566406 148.296875 243.476562 148.433594 244.378906 148.613281 C 245.285156 148.792969 246.175781 149.015625 247.058594 149.285156 C 247.9375 149.550781 248.804688 149.859375 249.65625 150.214844 C 250.507812 150.566406 251.339844 150.960938 252.152344 151.394531 C 252.964844 151.828125 253.753906 152.300781 254.519531 152.8125 C 255.285156 153.324219 256.023438 153.871094 256.734375 154.457031 C 257.449219 155.039062 258.128906 155.660156 258.78125 156.308594 C 259.433594 156.960938 260.050781 157.644531 260.632812 158.355469 C 261.21875 159.066406 261.765625 159.804688 262.277344 160.570312 C 262.789062 161.335938 263.261719 162.125 263.695312 162.9375 C 264.132812 163.75 264.523438 164.582031 264.878906 165.433594 C 265.230469 166.285156 265.539062 167.152344 265.808594 168.03125 C 266.074219 168.914062 266.296875 169.808594 266.476562 170.710938 C 266.65625 171.613281 266.792969 172.523438 266.882812 173.441406 C 266.972656 174.355469 267.019531 175.277344 267.019531 176.195312 Z M 267.019531 176.195312 " fill-opacity="1" fill-rule="nonzero"/></g><g fill="#ffffff" fill-opacity="1"><g transform="translate(55.763888, 182.046346)"><g><path d="M 1.90625 -15.171875 L 6.625 -15.171875 C 8.78125 -15.171875 10.34375 -14.863281 11.3125 -14.25 C 12.28125 -13.632812 12.765625 -12.660156 12.765625 -11.328125 C 12.765625 -10.421875 12.550781 -9.675781 12.125 -9.09375 C 11.707031 -8.519531 11.144531 -8.171875 10.4375 -8.046875 L 10.4375 -7.953125 C 11.394531 -7.734375 12.085938 -7.328125 12.515625 -6.734375 C 12.941406 -6.148438 13.15625 -5.375 13.15625 -4.40625 C 13.15625 -3.019531 12.65625 -1.9375 11.65625 -1.15625 C 10.65625 -0.382812 9.296875 0 7.578125 0 L 1.90625 0 Z M 5.125 -9.15625 L 7 -9.15625 C 7.863281 -9.15625 8.488281 -9.289062 8.875 -9.5625 C 9.269531 -9.832031 9.46875 -10.28125 9.46875 -10.90625 C 9.46875 -11.488281 9.253906 -11.90625 8.828125 -12.15625 C 8.410156 -12.40625 7.738281 -12.53125 6.8125 -12.53125 L 5.125 -12.53125 Z M 5.125 -6.609375 L 5.125 -2.65625 L 7.21875 -2.65625 C 8.101562 -2.65625 8.753906 -2.820312 9.171875 -3.15625 C 9.597656 -3.5 9.8125 -4.019531 9.8125 -4.71875 C 9.8125 -5.976562 8.914062 -6.609375 7.125 -6.609375 Z M 5.125 -6.609375 "/></g></g></g><g fill="#ffffff" fill-opacity="1"><g transform="translate(73.609392, 182.046346)"><g><path d="M 1.90625 0 L 1.90625 -15.171875 L 5.125 -15.171875 L 5.125 -2.65625 L 11.28125 -2.65625 L 11.28125 0 Z M 1.90625 0 "/></g></g></g><g fill="#ffffff" fill-opacity="1"><g transform="translate(89.18298, 182.046346)"><g><path d="M 14.25 -15.171875 L 14.25 -5.359375 C 14.25 -4.234375 14 -3.25 13.5 -2.40625 C 13 -1.5625 12.273438 -0.914062 11.328125 -0.46875 C 10.378906 -0.0195312 9.257812 0.203125 7.96875 0.203125 C 6.019531 0.203125 4.503906 -0.296875 3.421875 -1.296875 C 2.347656 -2.296875 1.8125 -3.660156 1.8125 -5.390625 L 1.8125 -15.171875 L 5.015625 -15.171875 L 5.015625 -5.890625 C 5.015625 -4.710938 5.25 -3.847656 5.71875 -3.296875 C 6.1875 -2.753906 6.960938 -2.484375 8.046875 -2.484375 C 9.097656 -2.484375 9.859375 -2.757812 10.328125 -3.3125 C 10.804688 -3.863281 11.046875 -4.726562 11.046875 -5.90625 L 11.046875 -15.171875 Z M 14.25 -15.171875 "/></g></g></g><g fill="#ffffff" fill-opacity="1"><g transform="translate(108.812823, 182.046346)"><g><path d="M 10.640625 0 L 1.90625 0 L 1.90625 -15.171875 L 10.640625 -15.171875 L 10.640625 -12.53125 L 5.125 -12.53125 L 5.125 -9.203125 L 10.265625 -9.203125 L 10.265625 -6.5625 L 5.125 -6.5625 L 5.125 -2.65625 L 10.640625 -2.65625 Z M 10.640625 0 "/></g></g></g><g fill="#ffffff" fill-opacity="1"><g transform="translate(124.282671, 182.046346)"><g><path d="M 14.109375 0 L 10.453125 0 L 6.484375 -6.390625 L 5.125 -5.421875 L 5.125 0 L 1.90625 0 L 1.90625 -15.171875 L 5.125 -15.171875 L 5.125 -8.234375 L 6.390625 -10.015625 L 10.5 -15.171875 L 14.0625 -15.171875 L 8.78125 -8.453125 Z M 14.109375 0 "/></g></g></g><g fill="#ffffff" fill-opacity="1"><g transform="translate(141.96219, 182.046346)"><g><path d="M 1.90625 0 L 1.90625 -15.171875 L 5.125 -15.171875 L 5.125 0 Z M 1.90625 0 "/></g></g></g><g fill="#ffffff" fill-opacity="1"><g transform="translate(152.566593, 182.046346)"><g><path d="M 15.671875 -7.609375 C 15.671875 -5.097656 15.046875 -3.164062 13.796875 -1.8125 C 12.554688 -0.46875 10.773438 0.203125 8.453125 0.203125 C 6.128906 0.203125 4.34375 -0.46875 3.09375 -1.8125 C 1.851562 -3.164062 1.234375 -5.101562 1.234375 -7.625 C 1.234375 -10.144531 1.859375 -12.070312 3.109375 -13.40625 C 4.359375 -14.738281 6.148438 -15.40625 8.484375 -15.40625 C 10.804688 -15.40625 12.582031 -14.734375 13.8125 -13.390625 C 15.050781 -12.046875 15.671875 -10.117188 15.671875 -7.609375 Z M 4.609375 -7.609375 C 4.609375 -5.910156 4.925781 -4.628906 5.5625 -3.765625 C 6.207031 -2.910156 7.171875 -2.484375 8.453125 -2.484375 C 11.023438 -2.484375 12.3125 -4.191406 12.3125 -7.609375 C 12.3125 -11.023438 11.035156 -12.734375 8.484375 -12.734375 C 7.203125 -12.734375 6.234375 -12.300781 5.578125 -11.4375 C 4.929688 -10.570312 4.609375 -9.296875 4.609375 -7.609375 Z M 4.609375 -7.609375 "/></g></g></g><g fill="#ffffff" fill-opacity="1"><g transform="translate(173.047111, 182.046346)"><g><path d="M 10.859375 -4.21875 C 10.859375 -2.84375 10.363281 -1.757812 9.375 -0.96875 C 8.394531 -0.1875 7.023438 0.203125 5.265625 0.203125 C 3.648438 0.203125 2.21875 -0.0976562 0.96875 -0.703125 L 0.96875 -3.6875 C 2 -3.238281 2.867188 -2.921875 3.578125 -2.734375 C 4.285156 -2.546875 4.929688 -2.453125 5.515625 -2.453125 C 6.222656 -2.453125 6.765625 -2.585938 7.140625 -2.859375 C 7.515625 -3.128906 7.703125 -3.53125 7.703125 -4.0625 C 7.703125 -4.351562 7.617188 -4.613281 7.453125 -4.84375 C 7.296875 -5.082031 7.054688 -5.304688 6.734375 -5.515625 C 6.410156 -5.734375 5.753906 -6.078125 4.765625 -6.546875 C 3.835938 -6.984375 3.140625 -7.398438 2.671875 -7.796875 C 2.210938 -8.203125 1.84375 -8.671875 1.5625 -9.203125 C 1.289062 -9.734375 1.15625 -10.359375 1.15625 -11.078125 C 1.15625 -12.410156 1.609375 -13.460938 2.515625 -14.234375 C 3.421875 -15.003906 4.675781 -15.390625 6.28125 -15.390625 C 7.070312 -15.390625 7.828125 -15.296875 8.546875 -15.109375 C 9.265625 -14.921875 10.015625 -14.65625 10.796875 -14.3125 L 9.75 -11.8125 C 8.945312 -12.144531 8.28125 -12.375 7.75 -12.5 C 7.21875 -12.632812 6.695312 -12.703125 6.1875 -12.703125 C 5.570312 -12.703125 5.101562 -12.5625 4.78125 -12.28125 C 4.457031 -12 4.296875 -11.628906 4.296875 -11.171875 C 4.296875 -10.890625 4.359375 -10.640625 4.484375 -10.421875 C 4.617188 -10.210938 4.828125 -10.007812 5.109375 -9.8125 C 5.398438 -9.625 6.082031 -9.269531 7.15625 -8.75 C 8.570312 -8.070312 9.539062 -7.394531 10.0625 -6.71875 C 10.59375 -6.039062 10.859375 -5.207031 10.859375 -4.21875 Z M 10.859375 -4.21875 "/></g></g></g><g fill="#ffffff" fill-opacity="1"><g transform="translate(188.319845, 182.046346)"><g><path d="M 14.109375 0 L 10.453125 0 L 6.484375 -6.390625 L 5.125 -5.421875 L 5.125 0 L 1.90625 0 L 1.90625 -15.171875 L 5.125 -15.171875 L 5.125 -8.234375 L 6.390625 -10.015625 L 10.5 -15.171875 L 14.0625 -15.171875 L 8.78125 -8.453125 Z M 14.109375 0 "/></g></g></g><g fill="#ffffff" fill-opacity="1"><g transform="translate(205.999363, 182.046346)"><g><path d="M 7.765625 0 L 4.546875 0 L 4.546875 -12.5 L 0.421875 -12.5 L 0.421875 -15.171875 L 11.875 -15.171875 L 11.875 -12.5 L 7.765625 -12.5 Z M 7.765625 0 "/></g></g></g><g fill="#ffffff" fill-opacity="1"><g transform="translate(221.873794, 182.046346)"><g><path d="M 10.640625 0 L 1.90625 0 L 1.90625 -15.171875 L 10.640625 -15.171875 L 10.640625 -12.53125 L 5.125 -12.53125 L 5.125 -9.203125 L 10.265625 -9.203125 L 10.265625 -6.5625 L 5.125 -6.5625 L 5.125 -2.65625 L 10.640625 -2.65625 Z M 10.640625 0 "/></g></g></g><g fill="#ffffff" fill-opacity="1"><g transform="translate(237.343642, 182.046346)"><g><path d="M 8.359375 -12.703125 C 7.140625 -12.703125 6.195312 -12.25 5.53125 -11.34375 C 4.875 -10.4375 4.546875 -9.171875 4.546875 -7.546875 C 4.546875 -4.160156 5.816406 -2.46875 8.359375 -2.46875 C 9.421875 -2.46875 10.707031 -2.734375 12.21875 -3.265625 L 12.21875 -0.578125 C 10.976562 -0.0546875 9.585938 0.203125 8.046875 0.203125 C 5.835938 0.203125 4.148438 -0.460938 2.984375 -1.796875 C 1.816406 -3.140625 1.234375 -5.0625 1.234375 -7.5625 C 1.234375 -9.144531 1.519531 -10.523438 2.09375 -11.703125 C 2.664062 -12.890625 3.488281 -13.800781 4.5625 -14.4375 C 5.644531 -15.070312 6.910156 -15.390625 8.359375 -15.390625 C 9.828125 -15.390625 11.304688 -15.03125 12.796875 -14.3125 L 11.75 -11.703125 C 11.1875 -11.972656 10.617188 -12.207031 10.046875 -12.40625 C 9.472656 -12.601562 8.910156 -12.703125 8.359375 -12.703125 Z M 8.359375 -12.703125 "/></g></g></g><g fill="#ffffff" fill-opacity="1"><g transform="translate(254.452581, 182.046346)"><g><path d="M 14.34375 0 L 11.140625 0 L 11.140625 -6.546875 L 5.125 -6.546875 L 5.125 0 L 1.90625 0 L 1.90625 -15.171875 L 5.125 -15.171875 L 5.125 -9.21875 L 11.140625 -9.21875 L 11.140625 -15.171875 L 14.34375 -15.171875 Z M 14.34375 0 "/></g></g></g><g fill="#ffffff" fill-opacity="1"><g transform="translate(274.27956, 182.046346)"><g><path d="M 1.21875 -1.484375 C 1.21875 -2.066406 1.367188 -2.503906 1.671875 -2.796875 C 1.984375 -3.097656 2.441406 -3.25 3.046875 -3.25 C 3.617188 -3.25 4.0625 -3.09375 4.375 -2.78125 C 4.6875 -2.476562 4.84375 -2.046875 4.84375 -1.484375 C 4.84375 -0.941406 4.679688 -0.507812 4.359375 -0.1875 C 4.046875 0.125 3.609375 0.28125 3.046875 0.28125 C 2.460938 0.28125 2.007812 0.128906 1.6875 -0.171875 C 1.375 -0.484375 1.21875 -0.921875 1.21875 -1.484375 Z M 1.21875 -1.484375 "/></g></g></g><g fill="#ff751f" fill-opacity="1"><g transform="translate(283.916221, 182.046346)"><g><path d="M 6.375 0.203125 C 2.757812 0.203125 0.953125 -1.773438 0.953125 -5.734375 C 0.953125 -7.703125 1.441406 -9.207031 2.421875 -10.25 C 3.410156 -11.289062 4.820312 -11.8125 6.65625 -11.8125 C 7.988281 -11.8125 9.191406 -11.550781 10.265625 -11.03125 L 9.328125 -8.578125 C 8.828125 -8.773438 8.363281 -8.9375 7.9375 -9.0625 C 7.507812 -9.195312 7.082031 -9.265625 6.65625 -9.265625 C 5.007812 -9.265625 4.1875 -8.097656 4.1875 -5.765625 C 4.1875 -3.492188 5.007812 -2.359375 6.65625 -2.359375 C 7.257812 -2.359375 7.820312 -2.4375 8.34375 -2.59375 C 8.863281 -2.757812 9.382812 -3.015625 9.90625 -3.359375 L 9.90625 -0.65625 C 9.382812 -0.332031 8.863281 -0.109375 8.34375 0.015625 C 7.820312 0.140625 7.164062 0.203125 6.375 0.203125 Z M 6.375 0.203125 "/></g></g></g><g fill="#ff751f" fill-opacity="1"><g transform="translate(298.410906, 182.046346)"><g><path d="M 9.03125 0 L 8.421875 -1.578125 L 8.328125 -1.578125 C 7.796875 -0.910156 7.25 -0.445312 6.6875 -0.1875 C 6.125 0.0703125 5.390625 0.203125 4.484375 0.203125 C 3.367188 0.203125 2.488281 -0.113281 1.84375 -0.75 C 1.207031 -1.382812 0.890625 -2.289062 0.890625 -3.46875 C 0.890625 -4.695312 1.316406 -5.601562 2.171875 -6.1875 C 3.035156 -6.769531 4.335938 -7.09375 6.078125 -7.15625 L 8.09375 -7.21875 L 8.09375 -7.734375 C 8.09375 -8.910156 7.488281 -9.5 6.28125 -9.5 C 5.351562 -9.5 4.265625 -9.21875 3.015625 -8.65625 L 1.96875 -10.796875 C 3.300781 -11.492188 4.78125 -11.84375 6.40625 -11.84375 C 7.96875 -11.84375 9.160156 -11.503906 9.984375 -10.828125 C 10.816406 -10.148438 11.234375 -9.117188 11.234375 -7.734375 L 11.234375 0 Z M 8.09375 -5.375 L 6.875 -5.328125 C 5.945312 -5.304688 5.257812 -5.140625 4.8125 -4.828125 C 4.363281 -4.523438 4.140625 -4.0625 4.140625 -3.4375 C 4.140625 -2.550781 4.648438 -2.109375 5.671875 -2.109375 C 6.410156 -2.109375 7 -2.316406 7.4375 -2.734375 C 7.875 -3.160156 8.09375 -3.722656 8.09375 -4.421875 Z M 8.09375 -5.375 "/></g></g></g></svg>